<mxfile host="65bd71144e">
    <diagram id="HQmuq-Z9LQ4CM7lCNYVZ" name="Page-1">
        <mxGraphModel dx="702" dy="389" grid="1" gridSize="10" guides="1" tooltips="1" connect="1" arrows="1" fold="1" page="1" pageScale="1" pageWidth="850" pageHeight="1100" math="0" shadow="0">
            <root>
                <mxCell id="0"/>
                <mxCell id="1" parent="0"/>
                <mxCell id="2" value="App.vue" style="rounded=0;whiteSpace=wrap;html=1;labelPosition=center;verticalLabelPosition=top;align=center;verticalAlign=bottom;" vertex="1" parent="1">
                    <mxGeometry x="180" y="40" width="310" height="360" as="geometry"/>
                </mxCell>
                <mxCell id="3" value="SearchBar&lt;br&gt;_searchbar.vue" style="rounded=1;whiteSpace=wrap;html=1;" vertex="1" parent="1">
                    <mxGeometry x="210" y="60" width="260" height="60" as="geometry"/>
                </mxCell>
                <mxCell id="4" value="AddTweet&lt;br&gt;_addTweet.vue" style="rounded=1;whiteSpace=wrap;html=1;" vertex="1" parent="1">
                    <mxGeometry x="210" y="130" width="260" height="60" as="geometry"/>
                </mxCell>
                <mxCell id="5" value="TweetList&lt;br&gt;_tweetList.vue" style="rounded=1;whiteSpace=wrap;html=1;labelPosition=center;verticalLabelPosition=top;align=center;verticalAlign=bottom;spacingTop=0;spacing=-34;" vertex="1" parent="1">
                    <mxGeometry x="210" y="200" width="260" height="190" as="geometry"/>
                </mxCell>
                <mxCell id="6" value="TweetDetails&lt;br&gt;_tweet-details.vue" style="rounded=1;whiteSpace=wrap;html=1;" vertex="1" parent="1">
                    <mxGeometry x="225" y="240" width="230" height="40" as="geometry"/>
                </mxCell>
                <mxCell id="7" value="..." style="rounded=1;whiteSpace=wrap;html=1;" vertex="1" parent="1">
                    <mxGeometry x="225" y="290" width="230" height="40" as="geometry"/>
                </mxCell>
                <mxCell id="8" value="..." style="rounded=1;whiteSpace=wrap;html=1;" vertex="1" parent="1">
                    <mxGeometry x="225" y="340" width="230" height="40" as="geometry"/>
                </mxCell>
            </root>
        </mxGraphModel>
    </diagram>
</mxfile>